<?xml version="1.0" encoding="utf-8"?>
<!-- Generator: Adobe Illustrator 22.0.1, SVG Export Plug-In . SVG Version: 6.00 Build 0)  -->
<svg version="1.1" id="Layer_1" xmlns="http://www.w3.org/2000/svg" xmlns:xlink="http://www.w3.org/1999/xlink" x="0px" y="0px"
	 viewBox="0 0 1052.6 391.3" style="enable-background:new 0 0 1052.6 391.3;" xml:space="preserve">
<style type="text/css">
	.st0{fill:#EE1D42;}
	.st1{fill:#757879;}
</style>
<g>
	<g>
		<path class="st0" d="M194.1,379L194.1,379C91.9,379,8.4,295.9,7.9,193.7V193C8.4,90.8,91.9,7.6,194.1,7.6
			c102.2,0,185.7,83.1,186.2,185.3c0,1.5-0.6,3-1.7,4.1c-1.1,1.1-2.5,1.7-4,1.7l0,0l-281.6-0.4c-3.2,0-5.7-2.6-5.7-5.7
			c0-28.6,11.1-55.4,31.3-75.6c20.2-20.2,47-31.3,75.6-31.3c36.4,0,70,18.3,89.8,48.9c1.8,2.7,1,6.2-1.7,7.9c-2.7,1.7-6.2,1-7.9-1.7
			c-17.7-27.3-47.6-43.7-80.2-43.7c-25.5,0-49.5,9.9-67.5,28c-16.6,16.7-26.4,38.4-27.8,61.8l269.9,0.4
			C365.2,94,288.1,19.1,194.1,19.1c-95.9,0-174.3,78-174.7,173.9v0.7c0.5,95.8,78.8,173.9,174.7,173.9
			c71.1,0,134.6-42.5,161.7-108.3c1.2-2.9,4.5-4.3,7.5-3.1c2.9,1.2,4.3,4.5,3.1,7.5C337.5,333.7,269.9,379,194.1,379z"/>
	</g>
	<g>
		<path class="st0" d="M194.1,300.5c-46.4,0-87.2-29.6-101.6-73.7c-1-3,0.6-6.2,3.7-7.2c3-1,6.2,0.6,7.2,3.7
			c12.8,39.3,49.3,65.8,90.7,65.8c40.8,0,77.2-26,90.4-64.5c1-3,4.3-4.6,7.2-3.6c3,1,4.6,4.3,3.6,7.3
			C280.4,271.5,239.8,300.5,194.1,300.5z"/>
	</g>
	<g>
		<path class="st0" d="M294.5,137.8c0,8.6-7,15.7-15.7,15.7c-8.6,0-15.7-7-15.7-15.7c0-8.6,7-15.7,15.7-15.7
			C287.5,122.1,294.5,129.1,294.5,137.8z"/>
	</g>
	<g>
		<path class="st0" d="M379.2,256.4c0,8.6-7,15.7-15.7,15.7c-8.6,0-15.7-7-15.7-15.7c0-8.6,7-15.7,15.7-15.7
			C372.1,240.7,379.2,247.7,379.2,256.4z"/>
	</g>
	<g>
		<path class="st0" d="M113.7,225.2c0,8.6-7,15.7-15.7,15.7c-8.6,0-15.7-7-15.7-15.7c0-8.6,7-15.7,15.7-15.7
			C106.6,209.6,113.7,216.6,113.7,225.2z"/>
	</g>
</g>
<path class="st1" d="M686.7,256.9c0,70.3-52.7,121.9-121.1,121.9c-45.7,0-81.8-23.5-101.4-58.2V376h-17.9V8.1h17.9v185.2
	c19.9-35,55.7-58.5,101.4-58.5C634,134.8,686.7,186.7,686.7,256.9z M462.8,256.9c0,59.8,43.6,105,102.7,105
	c59.5,0,102.7-45.7,102.7-105c0-59.5-43.4-105.3-102.7-105.3C506.5,151.7,462.8,196.9,462.8,256.9z"/>
<path class="st1" d="M921.2,154v142.3c0,44.7,23.3,65.7,59.8,65.7c23.3,0,42.9-7.7,57.2-20.1l8.9,13c-16.3,14.5-38.8,24-67.4,24
	c-47.8,0-76.4-27.1-76.4-82.3V154h-58.5v-16.3h58.5V57.2h17.9v80.5h118.3V154H921.2z"/>
<path class="st1" d="M763.8,376V137.6h17.9V376H763.8z"/>
<g>
	<path class="st0" d="M787.8,73c0,8.6-7,15.7-15.7,15.7c-8.6,0-15.7-7-15.7-15.7c0-8.6,7-15.7,15.7-15.7
		C780.8,57.4,787.8,64.4,787.8,73z"/>
</g>
</svg>
